<?xml version="1.0" encoding="UTF-8"?>
<svg xmlns="http://www.w3.org/2000/svg" viewBox="0 0 243.18 140.21">
  <defs>
    <style>
      .cls-1 {
        fill: #aee5ff;
      }

      .cls-2 {
        fill: #faa0ea;
        mix-blend-mode: multiply;
        opacity: .22;
      }

      .cls-3 {
        fill: #fcb432;
      }

      .cls-4 {
        fill: #fff;
      }

      .cls-5 {
        opacity: .53;
      }

      .cls-6 {
        isolation: isolate;
      }

      .cls-7 {
        fill: #7dc2ff;
      }

      .cls-8 {
        fill: #a44339;
      }

      .cls-9 {
        fill: #fcb872;
      }

      .cls-10 {
        fill: #8bceff;
      }

      .cls-11 {
        fill: #fb7c67;
      }
    </style>
  </defs>
  <g class="cls-6">
    <g id="Layer_2" data-name="Layer 2">
      <g id="OBJECTS">
        <g>
          <path class="cls-10" d="M172.46,118.38c-2.6,2.74-5.41,5.24-8.38,7.5-.51.38-1.02.76-1.53,1.13-3.29,2.36-6.77,4.43-10.4,6.18-3.05,1.47-6.2,2.73-9.43,3.75-4.32,1.37-8.79,2.32-13.33,2.83h0c-10.83,1.22-22.1-.08-32.97-4.27-6.98-2.69-13.28-6.38-18.81-10.83h0c-5.48-4.42-10.19-9.59-14.04-15.3-.13-.2-.26-.39-.39-.59-1.96-2.97-3.69-6.08-5.18-9.31-.02-.05-.04-.09-.06-.14-1.08-2.36-2.03-4.77-2.85-7.24-.06-.18-.12-.35-.17-.53-1.56-4.83-2.6-9.85-3.08-14.95-.19-2.04-.3-4.1-.31-6.17,0-1.23.02-2.47.08-3.71.1-2.18.31-4.37.63-6.56.49-3.38,1.22-6.75,2.23-10.1.36-1.2.75-2.39,1.17-3.58.19-.54.39-1.08.6-1.62.71-1.85,1.49-3.65,2.34-5.4.83-1.73,1.73-3.4,2.69-5.03,1.64-2.78,3.45-5.41,5.41-7.89,1.9-2.4,3.94-4.65,6.11-6.76,2-1.95,4.12-3.76,6.32-5.44.99-.75,2-1.48,3.02-2.18,3.53-2.4,7.27-4.48,11.17-6.2,3.49-1.54,7.1-2.8,10.8-3.76C110.21.66,116.55-.11,122.97.01h0c7.96.15,16.02,1.67,23.87,4.7,18.21,7.02,31.81,20.81,39.04,37.4,1.26,2.89,2.32,5.86,3.19,8.9.13.47.26.94.39,1.41.52,1.98.95,3.98,1.29,6,.33,1.94.58,3.89.74,5.86.02.17.03.34.04.51.27,3.5.27,7.03,0,10.58-.02.25-.04.49-.06.73-.17,1.99-.43,3.98-.78,5.96-.07.4-.14.8-.22,1.2-.08.4-.16.81-.25,1.21-.32,1.51-.69,3.02-1.11,4.52-.3,1.07-.63,2.13-.98,3.19-.35,1.04-.72,2.08-1.12,3.12-.22.58-.46,1.16-.69,1.74-.74,1.78-1.55,3.52-2.42,5.2-1.87,3.63-4.02,7.04-6.43,10.21-1.57,2.08-3.25,4.05-5.03,5.92Z"/>
          <g>
            <path class="cls-7" d="M189.45,52.42c-10.72-4.37-21.45-8.75-32.17-13.12,9.6-.19,19.22.76,28.6,2.81,1.26,2.89,2.32,5.86,3.19,8.9.13.47.26.94.39,1.41Z"/>
            <path class="cls-7" d="M191.54,75.37c-25.76-9.55-51.92-18.04-78.38-25.44-5.03-1.41-10.66-3.24-12.94-7.95,29.62,5.39,59.24,10.79,88.86,16.18.55.1,1.11.2,1.67.26.33,1.94.58,3.89.74,5.86.02.17.03.34.04.51.27,3.5.27,7.03,0,10.58Z"/>
            <path class="cls-7" d="M188.14,92.2c-19.47-8.33-41.78-10.82-59.46-22.62,21.12.9,41.19,8.81,61.79,13.69-.08.4-.16.81-.25,1.21-.32,1.51-.69,3.02-1.11,4.52-.3,1.07-.63,2.13-.98,3.19Z"/>
            <path class="cls-7" d="M177.49,112.47c-12.1-4.56-24.07-9.48-36.03-14.39-7.25-2.98-14.49-5.95-21.74-8.93,13.78-2.22,27.57,2.7,40.92,6.79,7.69,2.36,15.45,4.46,23.28,6.31-1.87,3.63-4.02,7.04-6.43,10.21Z"/>
            <path class="cls-7" d="M93.2,87.52c-14.29.32-27.64-6.87-41.37-10.9-.19-2.04-.3-4.1-.31-6.17,0-1.23.02-2.47.08-3.71,14.65,5.68,29.46,10.98,41.59,20.78Z"/>
            <path class="cls-7" d="M108.57,62.76c-18.58.63-36.13-7.69-54.11-12.68.36-1.2.75-2.39,1.17-3.58.19-.54.39-1.08.6-1.62.71-1.85,1.49-3.65,2.34-5.4,16.67,5.2,33.09,11.21,49.19,18.01,1.03.43,2.1.91,2.77,1.8.67.89.74,2.34-.16,3.01-.5.37-1.17.42-1.8.44Z"/>
            <path class="cls-7" d="M91.07,116.08c-9.23-1.98-18.39-4.26-27.51-6.72-.13-.2-.26-.39-.39-.59-1.96-2.97-3.69-6.08-5.18-9.31-.02-.05-.04-.09-.06-.14,12.32,3.83,24.86,7.32,33.14,16.75Z"/>
            <path class="cls-7" d="M152.61,13.06c-16.36-2.66-32.57-6.28-48.51-10.82C110.21.66,116.55-.11,122.97.01h0c9.96,4.17,19.84,8.52,29.64,13.04Z"/>
            <path class="cls-4" d="M97.72,42.69c-12.15-2.74-24.3-5.48-36.45-8.22,1.64-2.78,3.45-5.41,5.41-7.89,4.61,1.56,9.4,2.65,14.02,4.2,6.71,2.25,13.44,5.81,17.02,11.91Z"/>
            <path class="cls-4" d="M136.41,31.42c-21.21-3.87-42.42-7.74-63.62-11.61,2-1.95,4.12-3.76,6.32-5.44.99-.75,2-1.48,3.02-2.18,19.26,3.37,38.43,8.08,54.28,19.23Z"/>
            <path class="cls-4" d="M54.91,91.57c13.02,5.72,26.96,10.31,38.59,18.35-11.83-3.48-23.67-6.96-35.5-10.44-1.11-2.4-2.08-4.86-2.91-7.38-.06-.18-.12-.35-.17-.53Z"/>
            <path class="cls-4" d="M127.33,85.85c-.67.85-1.93.89-3.01.82-25.65-1.57-47.65-19.15-72.09-26.49.66-4.58,1.78-9.16,3.4-13.68,23.47,11.16,47.94,20.42,69.55,34.8,1.57,1.05,3.31,3.05,2.14,4.54Z"/>
            <path class="cls-4" d="M191.49,64.28c-10.65-4.55-22.69-6.88-32.25-13.51-1.1-.76-2.29-1.93-1.94-3.22.44-1.59,2.63-1.67,4.26-1.41,9.19,1.46,18.37,3.09,27.5,4.88,1.23,4.31,2.04,8.75,2.42,13.27Z"/>
            <path class="cls-4" d="M190.24,84.48c-6.4-2.22-12.7-4.7-18.9-7.42,6.35-2.6,13.26-2.12,20.14-.95-.17,1.99-.43,3.98-.78,5.96-.14.81-.29,1.61-.46,2.42Z"/>
            <path class="cls-4" d="M137.18,135.18c1.84.56,3.69,1.17,5.53,1.77-4.32,1.37-8.79,2.32-13.33,2.83h0c-4.34-1.62-8.65-3.31-12.93-5.07,6.44-2.9,13.97-1.58,20.73.47Z"/>
            <path class="cls-4" d="M162.55,127.02c-3.29,2.36-6.77,4.43-10.4,6.18-7.33-2.26-14.67-4.52-22.01-6.78-1.83-.56-4.09-1.78-3.72-3.66.39-2.02,3.22-2.13,5.24-1.74,10.29,2,20.59,4,30.88,6Z"/>
            <path class="cls-1" d="M163.36,32.75c-28.4-4.54-56.54-10.68-84.25-18.37,4.4-3.35,9.16-6.16,14.19-8.38,6.19,1.52,12.42,2.91,18.59,4.41,18.34,4.46,37,10.22,51.47,22.33Z"/>
            <path class="cls-1" d="M103.5,130.61c-8.63-1.98-17.26-3.96-25.89-5.95h0c-5.66-4.57-10.51-9.94-14.43-15.88.76.27,1.52.53,2.28.79,13.95,4.77,28.52,8.84,40.27,17.75.7.53,1.47,1.25,1.35,2.13-.19,1.41-2.19,1.48-3.58,1.17Z"/>
            <path class="cls-1" d="M122.73,113.25c-23.46-2.7-45.12-14.37-67.65-21.16-2.29-6.93-3.52-14.23-3.56-21.65,24.31,12.86,48.61,25.72,72.92,38.58,1.04.55,2.23,1.37,2.12,2.53-.14,1.56-2.28,1.87-3.84,1.69Z"/>
            <path class="cls-1" d="M190.7,82.06c-15.49-8.6-33.99-12.41-50.09-20.43-2.09-1.04-4.35-3.86-2.46-5.24.66-.48,1.56-.44,2.38-.37,17.22,1.41,34.31,4.35,51.01,8.77.44,5.7.18,11.5-.83,17.28Z"/>
            <path class="cls-1" d="M186.33,97.05c-8.36-3.29-16.45-7.26-24.17-11.86,8.99,1.27,17.97,2.54,26.96,3.81-.59,2.12-1.29,4.22-2.1,6.31-.22.58-.46,1.16-.69,1.74Z"/>
            <path class="cls-1" d="M172.46,118.38c-2.6,2.74-5.41,5.24-8.38,7.5-5.31-2.25-10.63-4.49-15.94-6.74-1.7-.72-3.71-1.96-3.45-3.78.16-1.09,1.15-1.89,2.22-2.17,1.06-.27,2.18-.12,3.26.05,7.54,1.17,15,2.89,22.3,5.14Z"/>
          </g>
          <path class="cls-3" d="M195.11,84.9c10.82,4.82,21.55,9.94,31.78,15.96,5.13,3.16,10.45,6.2,14.53,10.83,1.73,1.96,2.99,5.41-.21,7.2-4,1.9-8.4,1.24-12.6,1.02-39.32-5.38-76.9-19.5-113.9-33.14-36.57-14.8-73.93-29.46-106.56-52.13-2.42-1.91-4.87-3.89-6.74-6.45C.77,27.28.08,26.25,0,24.63c-.02-3.06,3.53-4.15,5.94-4.25,6.1-.4,12.06.88,17.96,2.03,11.61,2.46,22.99,5.89,34.24,9.6-10.22-2.44-47.68-12.48-55.01-7.79-.1.15-.13.18-.12.36.02.38.37,1.13.9,1.78,1.73,2.16,4,3.87,6.28,5.53,19.45,13.12,41.29,22.56,62.71,32.12,28.86,12.53,58.27,23.88,88.06,34.01,22.29,7.35,44.81,14.96,68.02,18.49,2.83.34,5.67.62,8.46.34,1.1-.14,2.17-.3,2.79-.97.05-.04.03-.11.07-.17-.02-.1.03-.16-.02-.31-.74-2.36-3.1-4.23-5.02-5.95-2.95-2.48-6.17-4.73-9.44-6.88-9.9-6.43-20.28-12.14-30.71-17.68h0Z"/>
          <path class="cls-2" d="M167.12,123.44c-.99.85-2.01,1.66-3.05,2.45-.51.38-1.02.76-1.53,1.13-3.29,2.36-6.77,4.43-10.4,6.18-3.05,1.47-6.2,2.73-9.43,3.75-4.32,1.37-8.79,2.32-13.33,2.83h0c-10.83,1.22-22.1-.08-32.97-4.27-6.98-2.69-13.28-6.38-18.81-10.83h0c-5.48-4.42-10.19-9.59-14.04-15.3-.13-.2-.26-.39-.39-.59-1.96-2.97-3.69-6.08-5.18-9.31-.02-.05-.04-.09-.06-.14-1.08-2.36-2.03-4.77-2.85-7.24-.06-.18-.12-.35-.17-.53-1.56-4.83-2.6-9.85-3.08-14.95-.19-2.04-.3-4.1-.31-6.17,0-1.23.02-2.47.08-3.71.1-2.18.31-4.37.63-6.56.49-3.38,1.22-6.75,2.23-10.1.36-1.2.75-2.39,1.17-3.58.19-.54.39-1.08.6-1.62.71-1.85,1.49-3.65,2.34-5.4.83-1.73,1.73-3.4,2.69-5.03,1.64-2.78,3.45-5.41,5.41-7.89,1.9-2.4,3.94-4.65,6.11-6.76,2-1.95,4.12-3.76,6.32-5.44.99-.75,2-1.48,3.02-2.18,3.53-2.4,7.27-4.48,11.17-6.2,3.49-1.54,7.1-2.8,10.8-3.76,1.04-.27,2.08-.52,3.14-.74-1.15.98-2.26,1.99-3.34,3.04-2.17,2.1-4.21,4.36-6.11,6.76-1.96,2.48-3.78,5.11-5.41,7.89-.96,1.63-1.86,3.3-2.69,5.03-.85,1.75-1.63,3.55-2.34,5.4-.21.54-.41,1.08-.6,1.62-.43,1.19-.82,2.38-1.17,3.58-1,3.35-1.74,6.72-2.23,10.1-.32,2.19-.53,4.37-.63,6.56-.06,1.24-.09,2.48-.08,3.71.01,2.07.12,4.13.31,6.17.48,5.1,1.52,10.11,3.08,14.95.06.18.11.35.17.53.82,2.47,1.77,4.88,2.85,7.24.02.05.04.09.06.14,1.49,3.22,3.22,6.34,5.18,9.31.13.2.26.39.39.59,3.85,5.71,8.57,10.88,14.04,15.3h0c5.53,4.46,11.83,8.14,18.81,10.83,10.87,4.19,22.14,5.49,32.97,4.27h0c2.23-.25,4.45-.61,6.63-1.07Z"/>
          <g>
            <path class="cls-8" d="M158.48,65.84c-.95,2.8-3.99,4.29-6.78,3.34-2.8-.95-4.29-3.99-3.34-6.78s3.99-4.29,6.78-3.34c2.8.95,4.29,3.98,3.34,6.78Z"/>
            <path class="cls-8" d="M121.83,53.7c-.95,2.8-3.99,4.29-6.78,3.34-2.8-.95-4.29-3.98-3.34-6.78s3.98-4.29,6.78-3.34,4.29,3.99,3.34,6.78Z"/>
            <path class="cls-8" d="M127.37,58.15c-1.12,3.61,1.05,7.55,4.74,8.44s7.21-1.39,8.04-4.97c.26-1.1-1.43-1.56-1.69-.47-.61,2.63-3.22,4.39-5.89,3.74s-4.37-3.56-3.52-6.29c.33-1.08-1.35-1.54-1.69-.47h0Z"/>
            <path class="cls-9" d="M111.29,59.07c-1.29,3.81-5.44,5.86-9.25,4.56-3.81-1.29-5.86-5.44-4.56-9.25,1.29-3.81,5.44-5.86,9.25-4.56,3.81,1.29,5.86,5.44,4.56,9.25Z"/>
            <path class="cls-9" d="M167.35,77.81c-1.29,3.81-5.44,5.86-9.25,4.56-3.81-1.29-5.86-5.44-4.56-9.25,1.29-3.81,5.44-5.86,9.25-4.56s5.86,5.44,4.56,9.25Z"/>
            <path class="cls-11" d="M105.68,52.02c-1.9,1.72-3.76,3.48-5.58,5.28-.33.32-.35.92,0,1.24s.89.34,1.24,0c1.82-1.8,3.68-3.56,5.58-5.28.34-.31.34-.93,0-1.24-.36-.33-.87-.33-1.24,0h0Z"/>
            <path class="cls-11" d="M106.69,54.86c-1.05,1.02-2.11,2.03-3.16,3.05-.33.32-.34.92,0,1.24s.88.34,1.24,0c1.05-1.02,2.11-2.03,3.16-3.05.33-.32.34-.92,0-1.24s-.88-.34-1.24,0h0Z"/>
            <path class="cls-11" d="M162.05,71.45c-1.57,1.55-3.17,2.87-4.93,4.09-.38.26-.58.78-.31,1.2.24.37.79.59,1.2.31,1.88-1.3,3.66-2.76,5.29-4.36.33-.32.35-.92,0-1.24s-.89-.34-1.24,0h0Z"/>
            <path class="cls-11" d="M163.6,73.8c-1.12.8-2.23,1.61-3.35,2.41-.19.14-.34.29-.4.52-.06.21-.03.49.09.67.24.37.8.6,1.2.31,1.12-.8,2.23-1.6,3.35-2.41.19-.14.34-.29.4-.52.06-.21.03-.49-.09-.67-.24-.37-.8-.6-1.2-.31h0Z"/>
          </g>
          <g class="cls-5">
            <path class="cls-4" d="M161.09,27.21c4.5,0,4.51-7,0-7s-4.51,7,0,7h0Z"/>
            <path class="cls-4" d="M169.58,36.26c12.97,16.26,14.86,39.73,5,57.96-2.14,3.96,3.9,7.5,6.04,3.53,11.47-21.24,8.91-47.63-6.1-66.44-2.81-3.52-7.73,1.46-4.95,4.95h0Z"/>
            <path class="cls-4" d="M162.33,112.19c-2.2,3.03-5.41,5.08-8.98,6.07-4.33,1.2-2.49,7.95,1.86,6.75,5.44-1.51,9.87-4.75,13.17-9.29,1.11-1.53.26-3.9-1.26-4.79-1.77-1.03-3.67-.28-4.79,1.26h0Z"/>
          </g>
        </g>
      </g>
    </g>
  </g>
</svg>