<?xml version="1.0" encoding="UTF-8"?>
<svg xmlns="http://www.w3.org/2000/svg" viewBox="0 0 61.26 61.09">
  <defs>
    <style>
      .cls-1 {
        fill: #850309;
      }

      .cls-2 {
        fill: #a5b5b6;
      }

      .cls-3, .cls-4 {
        fill: #e47e30;
      }

      .cls-5 {
        fill: #fff;
      }

      .cls-6 {
        fill: #e54d42;
      }

      .cls-7 {
        fill: #c52e25;
      }

      .cls-4 {
        mix-blend-mode: multiply;
      }

      .cls-8 {
        fill: #b5c5c6;
      }

      .cls-9 {
        fill: #f3aa43;
      }

      .cls-10 {
        isolation: isolate;
      }

      .cls-11 {
        fill: #b51f18;
      }

      .cls-12 {
        fill: #a5100e;
      }

      .cls-13 {
        fill: #657576;
      }

      .cls-14 {
        fill: #d53d33;
      }

      .cls-15 {
        fill: #556566;
      }

      .cls-16 {
        fill: #d5e5e6;
      }

      .cls-17 {
        fill: #95a5a6;
      }
    </style>
  </defs>
  <g class="cls-10">
    <g id="Layer_2" data-name="Layer 2">
      <g id="illustrations">
        <g>
          <g>
            <path class="cls-3" d="M0,61.09s9.32-.91,15.62-7.21l6.58-6.58-8.41-8.41-6.58,6.58C.91,51.77,0,61.09,0,61.09Z"/>
            <path class="cls-9" d="M3.87,57.22s6.38-.62,10.7-4.94l4.51-4.51-5.76-5.76-4.51,4.51c-4.32,4.32-4.94,10.7-4.94,10.7Z"/>
          </g>
          <path class="cls-11" d="M31,13.27c-12.27,9.96-26,3.32-26,3.32l-1.85,24.54S43.27,3.31,31,13.27Z"/>
          <g>
            <path class="cls-17" d="M26.99,47.06l-1.62,1.62c-1.28,1.28-3.35,1.28-4.63,0l-8.33-8.33c-1.28-1.28-1.28-3.35,0-4.63l1.62-1.62c1.28-1.28,3.35-1.28,4.63,0l8.33,8.33c1.28,1.28,1.28,3.35,0,4.63Z"/>
            <path class="cls-8" d="M19.86,35.39h2.29c1.81,0,3.27,1.47,3.27,3.27v8.07c0,1.81-1.47,3.27-3.27,3.27h-2.29c-1.81,0-3.27-1.47-3.27-3.27v-8.07c0-1.81,1.47-3.27,3.27-3.27Z" transform="translate(-24.04 27.36) rotate(-45)"/>
            <path class="cls-2" d="M18.69,35.88h2.29c1.81,0,3.28,1.47,3.28,3.28v4.75c0,1.81-1.47,3.27-3.27,3.27h-2.29c-1.81,0-3.27-1.47-3.27-3.27v-4.75c0-1.81,1.47-3.27,3.27-3.27Z" transform="translate(-23.56 26.19) rotate(-45)"/>
          </g>
          <path class="cls-12" d="M30.92,14.58c-12.27,9.95-26,3.31-26,3.31l-1.85,24.54S43.19,4.62,30.92,14.58Z"/>
          <path class="cls-11" d="M48.09,30.36c-9.95,12.27-3.32,26-3.32,26l-24.54,1.85s37.81-40.12,27.85-27.86Z"/>
          <path class="cls-12" d="M46.78,30.43c-9.96,12.27-3.32,26-3.32,26l-24.54,1.85s37.81-40.12,27.86-27.85Z"/>
          <path class="cls-13" d="M31.39,47.92c-.81.81-2.12.81-2.93,0l-15.12-15.13c-.81-.81-.81-2.12,0-2.93h0c.81-.81,2.12-.81,2.93,0l15.12,15.12c.81.81.81,2.12,0,2.93h0Z"/>
          <path class="cls-7" d="M45.75,33.55l-14.14,14.14L13.56,29.63l14.14-14.14c6.2-6.21,13.76-9.97,20.14-12.24,1.57-.55,3.06-1.02,4.44-1.41.85-.24,1.67-.45,2.44-.63C58.49.3,61.02.03,61.23,0h.01s0,0,0,0c-.02.21-.29,2.72-1.19,6.46-.19.81-.41,1.67-.67,2.57-.37,1.34-.82,2.78-1.36,4.29-2.26,6.39-6.04,13.99-12.27,20.21Z"/>
          <path class="cls-6" d="M45.75,33.55l-14.14,14.14-12.96-12.96,14.14-14.14c5.97-5.97,12.2-10.68,17.31-14.07,1.21-.8,2.36-1.54,3.43-2.2.63-.39,1.23-.75,1.8-1.08C58.8,1.17,61.06.08,61.23,0h.01s0,0,0,0c-.02.21-.29,2.72-1.19,6.46-.19.81-.41,1.67-.67,2.57-.37,1.34-.82,2.78-1.36,4.29-2.26,6.39-6.04,13.99-12.27,20.21Z"/>
          <path class="cls-14" d="M40.66,28.46l-14.14,14.14-7.87-7.87,14.14-14.14c5.97-5.97,12.2-10.68,17.31-14.07,1.21-.8,2.36-1.54,3.43-2.2.63-.39,1.23-.75,1.8-1.08C58.8,1.17,61.06.08,61.23,0h.01s0,0,0,0c-.08.17-1.16,2.42-3.21,5.87-.34.57-.71,1.18-1.1,1.82-.65,1.06-1.38,2.2-2.18,3.4-3.4,5.11-8.11,11.36-14.09,17.34Z"/>
          <path class="cls-16" d="M45.2,26.24c-2.81,2.82-7.38,2.82-10.19,0-2.82-2.81-2.82-7.38,0-10.19,2.81-2.81,7.38-2.81,10.19,0,2.81,2.82,2.81,7.38,0,10.19Z"/>
          <path class="cls-15" d="M34.08,27.16c-3.32-3.32-3.32-8.73,0-12.05,3.32-3.32,8.73-3.32,12.05,0,3.32,3.32,3.32,8.72,0,12.05-3.32,3.32-8.72,3.32-12.05,0ZM44.28,16.97c-2.3-2.3-6.04-2.3-8.34,0s-2.3,6.04,0,8.34c2.3,2.3,6.04,2.3,8.34,0s2.3-6.04,0-8.34Z"/>
          <path class="cls-5" d="M44.34,23.33c-1.13,1.13-2.95,1.13-4.08,0s-1.12-2.95,0-4.08c1.13-1.13,2.95-1.13,4.08,0,1.13,1.13,1.13,2.95,0,4.08Z"/>
          <polygon class="cls-12" points="26.79 38.91 8.45 52.8 22.34 34.45 28.84 32.4 26.79 38.91"/>
          <polygon class="cls-1" points="28.84 32.4 8.45 52.8 22.34 34.45 28.84 32.4"/>
          <path class="cls-4" d="M58.04,13.35c-1.09-.62-2.19-1.36-3.27-2.22-.88-.69-1.74-1.45-2.57-2.28-.75-.75-1.45-1.53-2.08-2.32-.87-1.08-1.63-2.17-2.27-3.26,1.57-.55,3.06-1.02,4.44-1.41.85-.24,1.67-.45,2.44-.63C58.5.31,61.04.04,61.24.02h.01s0,0,0,0c-.02.21-.29,2.72-1.19,6.46-.19.81-.41,1.67-.67,2.57-.37,1.34-.82,2.78-1.36,4.29Z"/>
        </g>
      </g>
    </g>
  </g>
</svg>